<?xml version="1.0" encoding="utf-8"?>
<!-- Generator: Adobe Illustrator 15.0.0, SVG Export Plug-In . SVG Version: 6.00 Build 0)  -->
<!DOCTYPE svg PUBLIC "-//W3C//DTD SVG 1.1//EN" "http://www.w3.org/Graphics/SVG/1.1/DTD/svg11.dtd">
<svg version="1.1" id="Ebene_1" xmlns="http://www.w3.org/2000/svg" xmlns:xlink="http://www.w3.org/1999/xlink" x="0px" y="0px"
	 width="512px" height="512px" viewBox="0 0 512 512" enable-background="new 0 0 512 512" xml:space="preserve">
<rect fill="#FFE884" width="512" height="512"/>
<g>
	<g>
		<g>
			<path fill="#3B1539" d="M100.918,107.871c-14.23,0-25.749,2.304-34.565,6.913c-8.821,4.612-18.535,13.826-29.155,27.652
				l-18.635-16.231C35.591,102.36,50.62,86.581,63.648,78.866c13.024-7.71,30.758-11.572,53.2-11.572h203.631l49.747,40.577h-72.737
				v247.406c0,26.254,7.513,39.373,22.54,39.373c8.613,0,18.938-5.002,30.959-15.027l11.723,18.037
				c-22.441,19.234-44.286,28.854-65.522,28.854c-17.237,0-30.107-5.813-38.622-17.436c-8.521-11.615-12.775-31.154-12.775-58.607
				v-242.6h-92.273v246.764H93.104v-14.729c12.423-47.084,18.635-110.608,18.635-190.557v-41.478H100.918z"/>
		</g>
		<g>
			<path fill="#3B1539" d="M473.137,406.883c-5.102-3.518-10.11-8.609-15.029-15.295c-4.922-6.68-10.811-16.344-17.667-29.002
				l-23.728-43.238c-9.318-17.227-17.797-29.926-25.442-38.098c-7.647-8.174-16.835-14.459-27.553-18.854v-2.107
				c26.538-9.492,46.443-22.676,59.721-39.548c13.268-16.875,19.905-37.347,19.905-61.43c0-31.463-10.195-54.665-30.586-69.605
				c-20.391-14.938-51.148-22.411-92.278-22.411l1.089,40.577c46.731,1.226,54.712,9.073,60.211,16.637
				c7.325,10.077,8.568,24.959,8.568,41.658c0,15.995-2.416,29.488-7.251,40.468c-4.837,10.986-11.297,19.555-19.379,25.706
				c-8.029,6.114-35.07,12.61-44.743,14.851l-0.208,25.094c4.305,0.965,8.345,2.729,12.125,5.273
				c3.782,2.547,7.912,6.986,12.394,13.314c4.481,6.326,10.238,16.174,17.271,29.529l23.201,44.029
				c5.8,11.074,11.689,21.977,17.664,32.695c5.974,10.721,12.3,20.74,18.984,30.057h73.032v-12.92
				C485,412.857,478.234,410.4,473.137,406.883z"/>
		</g>
	</g>
</g>
</svg>
